<svg xmlns="http://www.w3.org/2000/svg" viewBox="0 0 600 792" width="600" height="792" role="img" aria-label="Un choque con un conductor sin seguro. ¿Qué paga las cuentas del motociclista?. Su PIP en la moto: $0: El PIP de Florida está escrito para vehículos de cuatro ruedas o más.. El otro conductor: sin seguro: Alrededor de 1 de cada 5 conductores en Florida no tenía seguro en 2023.. Lo que queda: Las facturas médicas y el sueldo perdido.. Lo que puede ayudar: Los pagos médicos y la cobertura de conductor sin seguro de su propia póliza, hasta sus límites.. Situación de ejemplo. Lo que se paga depende de sus coberturas y límites.">
<title>Un choque con un conductor sin seguro</title>
<style>text{font-family:Arial, Helvetica, 'Segoe UI', Roboto, 'Noto Sans', sans-serif}</style>
<rect width="600" height="792" rx="24" fill="#f6f9fe"/>
<text x="300" y="56" font-size="30" font-weight="700" fill="#07274f" text-anchor="middle"><tspan x="300" dy="0">Un choque con un conductor sin</tspan><tspan x="300" dy="38">seguro</tspan></text><text x="300" y="136" font-size="22" font-weight="400" fill="#4b5b70" text-anchor="middle"><tspan x="300" dy="0">¿Qué paga las cuentas del motociclista?</tspan></text><rect x="24" y="162" width="552" height="117" rx="16" fill="#ffffff" stroke="#d6e0ee" stroke-width="2"/><g transform="translate(70 220.5)"><circle r="26" fill="#d9534f"/><path d="M0 -13 L0 4" stroke="#fff" stroke-width="6" stroke-linecap="round"/><circle cx="0" cy="13" r="3.6" fill="#fff"/></g><text x="114" y="199" font-size="23" font-weight="700" fill="#07274f" text-anchor="start"><tspan x="114" dy="0">Su PIP en la moto: $0</tspan></text><text x="114" y="228" font-size="22" font-weight="400" fill="#4b5b70" text-anchor="start"><tspan x="114" dy="0">El PIP de Florida está escrito para</tspan><tspan x="114" dy="29">vehículos de cuatro ruedas o más.</tspan></text><rect x="24" y="293" width="552" height="117" rx="16" fill="#ffffff" stroke="#d6e0ee" stroke-width="2"/><g transform="translate(70 351.5)"><circle r="26" fill="#d9534f"/><path d="M0 -13 L0 4" stroke="#fff" stroke-width="6" stroke-linecap="round"/><circle cx="0" cy="13" r="3.6" fill="#fff"/></g><text x="114" y="330" font-size="23" font-weight="700" fill="#07274f" text-anchor="start"><tspan x="114" dy="0">El otro conductor: sin seguro</tspan></text><text x="114" y="359" font-size="22" font-weight="400" fill="#4b5b70" text-anchor="start"><tspan x="114" dy="0">Alrededor de 1 de cada 5 conductores</tspan><tspan x="114" dy="29">en Florida no tenía seguro en 2023.</tspan></text><rect x="24" y="424" width="552" height="117" rx="16" fill="#ffffff" stroke="#d6e0ee" stroke-width="2"/><g transform="translate(70 482.5)"><circle r="26" fill="#07274f"/><rect x="-10" y="-14" width="20" height="28" rx="3" fill="#fff"/><path d="M-5 -5 H5 M-5 2 H5 M-5 9 H2" stroke="#07274f" stroke-width="2.6"/></g><text x="114" y="461" font-size="23" font-weight="700" fill="#07274f" text-anchor="start"><tspan x="114" dy="0">Lo que queda</tspan></text><text x="114" y="490" font-size="22" font-weight="400" fill="#4b5b70" text-anchor="start"><tspan x="114" dy="0">Las facturas médicas y el sueldo</tspan><tspan x="114" dy="29">perdido.</tspan></text><rect x="24" y="555" width="552" height="146" rx="16" fill="#ffffff" stroke="#d6e0ee" stroke-width="2"/><g transform="translate(70 628)"><circle r="26" fill="#0c5bd6"/><path d="M0 -15 L12 -10 L12 0 C12 9 6 14 0 17 C-6 14 -12 9 -12 0 L-12 -10Z" fill="#fff"/></g><text x="114" y="592" font-size="23" font-weight="700" fill="#07274f" text-anchor="start"><tspan x="114" dy="0">Lo que puede ayudar</tspan></text><text x="114" y="621" font-size="22" font-weight="400" fill="#4b5b70" text-anchor="start"><tspan x="114" dy="0">Los pagos médicos y la cobertura de</tspan><tspan x="114" dy="29">conductor sin seguro de su propia</tspan><tspan x="114" dy="29">póliza, hasta sus límites.</tspan></text><text x="300" y="737" font-size="19" font-weight="400" fill="#4b5b70" text-anchor="middle"><tspan x="300" dy="0">Situación de ejemplo. Lo que se paga depende</tspan><tspan x="300" dy="25">de sus coberturas y límites.</tspan></text>
</svg>
